# xmcd
#
# Track frame offsets: 
#        150
#        12772
#        24452
#        38464
#        48019
#        59468
#        73537
#        83759
#        97870
#        110424
#        114590
#        125634
#        144805
#        152361
#        164546
#        174856
#        178272
#        186530
#        196799
#
# Disc length: 2729 seconds
#
# Revision: 0
# Processed by: cddbd v1.5.2PL0 Copyright (c) Steve Scherf et al.
# Submitted via: ExactAudioCopy v0.99pb5
#
DISCID=ea0aa713
DTITLE=Abuse - Like A Virgin
DYEAR=2011
DGENRE=Death Metal
TTITLE0=You Will Submit
TTITLE1=Why Do Women Hate Me?
TTITLE2=Shark
TTITLE3=Satan's Parade
TTITLE4=Kill Everything
TTITLE5=I Don't Like
TTITLE6=Carnage For The Elderly
TTITLE7=Pieces Of Girl
TTITLE8=It Dripped Out Of Her Ass
TTITLE9=You Can Do A Lot With A Knife
TTITLE10=There's Something About Rape
TTITLE11=Fuck, Whatever
TTITLE12=She Really Meant Yes
TTITLE13=Fuck, Whatever (Demo)
TTITLE14=There's Something About Rape (Demo)
TTITLE15=You Can Do A Lot With A Knife (Demo)
TTITLE16=Satan's Parade (Demo)
TTITLE17=Carnage For The Elderly (Demo)
TTITLE18=She Really Meant Yes (Demo)
EXTD=
EXTT0=
EXTT1=
EXTT2=
EXTT3=
EXTT4=
EXTT5=
EXTT6=
EXTT7=
EXTT8=
EXTT9=
EXTT10=
EXTT11=
EXTT12=
EXTT13=
EXTT14=
EXTT15=
EXTT16=
EXTT17=
EXTT18=
PLAYORDER=
